<svg xmlns="http://www.w3.org/2000/svg" width="92.115" height="92.115" viewBox="-72 -72 69.086 69.086"><defs><style>svg{background:#fff}</style></defs><g stroke="#000" stroke-miterlimit="10" stroke-width=".4"><g stroke-width=".8"><path fill="none" d="M-71.07-37.727h66.686"/><path fill="none" stroke-linecap="round" stroke-linejoin="round" d="M-68.91-34.604c-.468-1.874-1.51-2.759-2.56-3.123 1.05-.364 2.092-1.249 2.56-3.122M-6.544-40.85c.468 1.874 1.51 2.759 2.56 3.123-1.05.364-2.092 1.25-2.56 3.123"/></g><g stroke-width=".8"><path fill="none" d="M-37.727-4.384V-71.07"/><path fill="none" stroke-linecap="round" stroke-linejoin="round" d="M-34.604-6.544c-1.874.468-2.759 1.51-3.123 2.56-.364-1.05-1.249-2.092-3.122-2.56M-40.85-68.91c1.874-.468 2.759-1.51 3.123-2.56.364 1.05 1.25 2.092 3.123 2.56"/></g><path fill="none" d="M-9.274-37.727s-.034-.648-.073-.895a7 7 0 0 0-.213-.885 8 8 0 0 0-.351-.861 8 8 0 0 0-.488-.828 9 9 0 0 0-.62-.782 10 10 0 0 0-.748-.726 11 11 0 0 0-.87-.659 13 13 0 0 0-.982-.584 14 14 0 0 0-1.09-.501 16 16 0 0 0-1.188-.409c-.342-.1-.91-.238-1.275-.309a19 19 0 0 0-1.354-.204 21 21 0 0 0-1.42-.094c-.4-.01-1.06-.001-1.475.021s-1.093.084-1.519.139-1.117.17-1.55.258-1.134.257-1.571.379-1.14.344-1.577.499-1.139.43-1.573.617c-.434.188-1.128.515-1.555.734-.428.22-1.108.596-1.526.846s-1.08.675-1.485.954c-.405.28-1.045.75-1.434 1.056-.39.307-1 .82-1.371 1.152-.37.331-.95.883-1.3 1.238-.349.355-.892.943-1.218 1.318s-.829.994-1.128 1.388c-.3.393-.76 1.038-1.032 1.447a33 33 0 0 0-.928 1.496c-.243.42-.608 1.105-.82 1.535a31 31 0 0 0-.705 1.56c-.18.435-.442 1.137-.589 1.575a29 29 0 0 0-.469 1.576c-.114.436-.27 1.136-.35 1.568-.08.431-.18 1.12-.228 1.543a24 24 0 0 0-.11 1.51 22 22 0 0 0 .008 1.463c.018.398.073 1.024.121 1.404.05.38.152.976.23 1.335.079.36.228.919.335 1.255.106.335.299.855.431 1.164.132.31.366.786.522 1.066s.426.706.604.955c.177.25.48.624.676.84.197.217.528.537.74.718.214.18.569.443.795.588s.6.35.836.456.625.247.869.316c.243.068.64.148.888.178s.648.046.896.037a7 7 0 0 0 .894-.107c.247-.048.64-.158.881-.246.24-.087.622-.26.854-.385s.597-.358.817-.52a9 9 0 0 0 .77-.652c.204-.199.522-.546.71-.779s.475-.633.642-.898c.168-.264.42-.715.565-1.01.145-.294.358-.793.478-1.115.12-.323.293-.861.386-1.209.093-.347.219-.926.283-1.296s.144-.981.177-1.37c.034-.39.065-1.029.067-1.434.003-.406-.02-1.07-.05-1.488a25 25 0 0 0-.168-1.528 26 26 0 0 0-.287-1.557 28 28 0 0 0-.409-1.573c-.13-.437-.364-1.14-.527-1.576a31 31 0 0 0-.647-1.57 32 32 0 0 0-.761-1.55 33 33 0 0 0-.874-1.517 33 33 0 0 0-.979-1.473 34 34 0 0 0-1.08-1.42c-.313-.385-.836-.99-1.174-1.355a34 34 0 0 0-1.257-1.279c-.36-.344-.957-.878-1.337-1.197a34 34 0 0 0-1.403-1.106 33 33 0 0 0-1.46-1.007 33 33 0 0 0-1.507-.902 32 32 0 0 0-1.542-.792 31 31 0 0 0-1.565-.677 30 30 0 0 0-1.577-.56 28 28 0 0 0-1.575-.44 27 27 0 0 0-1.563-.32 25 25 0 0 0-1.535-.199 24 24 0 0 0-1.5-.08c-.41-.007-1.056.01-1.45.035s-1.013.092-1.388.148c-.376.056-.964.17-1.318.256-.353.085-.903.247-1.232.36-.33.112-.838.316-1.14.454-.303.138-.767.381-1.04.543-.273.161-.687.439-.929.621-.241.183-.604.493-.812.694-.207.201-.512.538-.684.755s-.42.576-.556.805a8 8 0 0 0-.421.845c-.098.24-.225.63-.284.875-.06.245-.124.643-.145.891s-.02.649 0 .897c.019.248.082.647.14.892.06.245.183.636.28.875.097.238.285.617.42.846.135.23.381.59.553.806.171.217.474.554.681.756.207.2.57.511.81.694.242.183.653.463.926.625.272.162.735.405 1.037.544s.81.343 1.139.457.877.275 1.23.36c.354.087.941.202 1.316.259s.994.124 1.387.15c.394.027 1.04.044 1.449.038s1.077-.04 1.498-.078 1.105-.125 1.535-.196 1.128-.213 1.563-.318 1.138-.3 1.575-.438 1.14-.386 1.577-.557a31 31 0 0 0 1.565-.675 32 32 0 0 0 1.542-.789 33 33 0 0 0 1.508-.9 33 33 0 0 0 1.462-1.004 34 34 0 0 0 1.404-1.104c.38-.319.977-.852 1.337-1.195s.923-.913 1.26-1.278a34 34 0 0 0 1.176-1.354c.313-.384.795-1.016 1.082-1.417.286-.402.724-1.059.982-1.474.258-.414.648-1.09.875-1.516.228-.425.568-1.116.764-1.548.196-.433.486-1.133.65-1.57.163-.436.399-1.139.53-1.576.13-.437.313-1.14.41-1.574.098-.434.227-1.13.29-1.557.064-.428.14-1.11.17-1.528.032-.42.055-1.084.053-1.49a21 21 0 0 0-.064-1.435 20 20 0 0 0-.174-1.372c-.064-.37-.19-.949-.283-1.297a16 16 0 0 0-.383-1.211c-.119-.323-.332-.822-.476-1.118a13 13 0 0 0-.563-1.012 12 12 0 0 0-.64-.9 10 10 0 0 0-.71-.781c-.205-.2-.548-.49-.768-.654a8 8 0 0 0-.816-.525 8 8 0 0 0-.854-.387 7 7 0 0 0-.88-.249 7 7 0 0 0-.893-.11 7 7 0 0 0-.897.035 7 7 0 0 0-.89.173 7 7 0 0 0-.867.314c-.237.107-.611.31-.838.454a9 9 0 0 0-.795.585c-.213.18-.544.499-.741.714-.197.216-.5.59-.679.838-.178.248-.448.673-.605.953s-.391.754-.524 1.063-.326.828-.433 1.163a17 17 0 0 0-.337 1.253c-.079.359-.182.954-.232 1.333-.05.38-.106 1.005-.124 1.403-.019.397-.024 1.05-.01 1.462s.061 1.085.107 1.509c.047.423.147 1.112.226 1.543.08.432.234 1.13.347 1.567.113.436.32 1.139.467 1.576.146.437.408 1.14.587 1.575s.492 1.132.703 1.561.574 1.114.816 1.535.655 1.089.927 1.497c.271.41.73 1.055 1.029 1.45.3.393.802 1.012 1.127 1.388s.867.964 1.216 1.32c.348.355.927.907 1.297 1.24.37.331.981.846 1.37 1.152a34 34 0 0 0 1.433 1.059 33 33 0 0 0 1.484.956c.418.25 1.098.629 1.525.849.428.22 1.12.547 1.555.736s1.135.464 1.572.62 1.14.379 1.577.501c.437.123 1.139.293 1.572.382s1.125.204 1.55.26 1.105.119 1.52.142 1.075.032 1.477.023 1.035-.05 1.42-.091c.386-.041.99-.131 1.356-.202.365-.07.935-.208 1.277-.307.342-.1.872-.281 1.189-.407s.805-.348 1.093-.499c.288-.15.727-.41.984-.582.258-.172.648-.467.874-.658.225-.192.56-.516.75-.725s.468-.558.623-.781.374-.592.49-.826c.118-.234.276-.619.355-.861s.174-.637.215-.884c.04-.248.075-.897.075-.897"/></g></svg>